G04 DesignSpark PCB Gerber Version 11.0 Build 5877*
%FSLAX34Y34*%
%MOIN*%
%ADD10C,0.00500*%
%ADD75C,0.10000*%
X0Y0D02*
D02*
D10*
X3213Y2681D02*
X3181Y2650D01*
X3119Y2619D01*
X3025D01*
X2963Y2650D01*
X2931Y2681D01*
X2900Y2744D01*
Y2869D01*
X2931Y2931D01*
X2963Y2963D01*
X3025Y2994D01*
X3119D01*
X3181Y2963D01*
X3213Y2931D01*
Y24431D02*
X3181Y24400D01*
X3119Y24369D01*
X3025D01*
X2963Y24400D01*
X2931Y24431D01*
X2900Y24494D01*
Y24619D01*
X2931Y24681D01*
X2963Y24713D01*
X3025Y24744D01*
X3119D01*
X3181Y24713D01*
X3213Y24681D01*
X3131Y10369D02*
X3287Y10744D01*
X3443Y10369D01*
X3193Y10525D02*
X3381D01*
X5525Y9244D02*
X5681Y9619D01*
X5838Y9244D01*
X5588Y9400D02*
X5775D01*
X5525Y10369D02*
X5681Y10744D01*
X5838Y10369D01*
X5588Y10525D02*
X5775D01*
X5619Y12119D02*
X5744D01*
X5681D02*
Y12494D01*
X5619D02*
X5744D01*
X5619Y13119D02*
X5744D01*
X5681D02*
Y13494D01*
X5619D02*
X5744D01*
X5619Y14119D02*
X5744D01*
X5681D02*
Y14494D01*
X5619D02*
X5744D01*
X5619Y15119D02*
X5744D01*
X5681D02*
Y15494D01*
X5619D02*
X5744D01*
X6175Y18944D02*
Y19319D01*
Y19131D02*
X6488D01*
Y18944D02*
Y19319D01*
X6175Y20944D02*
Y21319D01*
Y21131D02*
X6488D01*
Y20944D02*
Y21319D01*
X8119Y7150D02*
X8213D01*
Y7119D01*
X8181Y7056D01*
X8150Y7025D01*
X8088Y6994D01*
X8025D01*
X7963Y7025D01*
X7931Y7056D01*
X7900Y7119D01*
Y7244D01*
X7931Y7306D01*
X7963Y7338D01*
X8025Y7369D01*
X8088D01*
X8150Y7338D01*
X8181Y7306D01*
X8213Y7244D01*
X8119Y8275D02*
X8213D01*
Y8244D01*
X8181Y8181D01*
X8150Y8150D01*
X8088Y8119D01*
X8025D01*
X7963Y8150D01*
X7931Y8181D01*
X7900Y8244D01*
Y8369D01*
X7931Y8431D01*
X7963Y8463D01*
X8025Y8494D01*
X8088D01*
X8150Y8463D01*
X8181Y8431D01*
X8213Y8369D01*
X9025Y10344D02*
Y10719D01*
X9338D01*
X9275Y10531D02*
X9025D01*
Y11344D02*
Y11719D01*
X9338D01*
X9275Y11531D02*
X9025D01*
Y12344D02*
Y12719D01*
X9338D01*
X9275Y12531D02*
X9025D01*
Y13494D02*
Y13869D01*
X9338D01*
X9275Y13681D02*
X9025D01*
Y13494D02*
X9338D01*
X9025Y14494D02*
Y14869D01*
X9338D01*
X9275Y14681D02*
X9025D01*
Y14494D02*
X9338D01*
X9025Y15494D02*
Y15869D01*
X9338D01*
X9275Y15681D02*
X9025D01*
Y15494D02*
X9338D01*
X9025Y16494D02*
Y16869D01*
X9338D01*
X9275Y16681D02*
X9025D01*
Y16494D02*
X9338D01*
X9244Y23275D02*
X9338D01*
Y23244D01*
X9306Y23181D01*
X9275Y23150D01*
X9213Y23119D01*
X9150D01*
X9088Y23150D01*
X9056Y23181D01*
X9025Y23244D01*
Y23369D01*
X9056Y23431D01*
X9088Y23463D01*
X9150Y23494D01*
X9213D01*
X9275Y23463D01*
X9306Y23431D01*
X9338Y23369D01*
X9244Y24650D02*
X9338D01*
Y24619D01*
X9306Y24556D01*
X9275Y24525D01*
X9213Y24494D01*
X9150D01*
X9088Y24525D01*
X9056Y24556D01*
X9025Y24619D01*
Y24744D01*
X9056Y24806D01*
X9088Y24838D01*
X9150Y24869D01*
X9213D01*
X9275Y24838D01*
X9306Y24806D01*
X9338Y24744D01*
X9775Y9244D02*
X9931Y9619D01*
X10088Y9244D01*
X9838Y9400D02*
X10025D01*
X10175Y19944D02*
Y20319D01*
Y20131D02*
X10488D01*
Y19944D02*
Y20319D01*
X10900Y2119D02*
X11056Y2494D01*
X11213Y2119D01*
X10963Y2275D02*
X11150D01*
X10900Y5744D02*
X11056Y6119D01*
X11213Y5744D01*
X10963Y5900D02*
X11150D01*
X12044Y19781D02*
X12106Y19750D01*
X12138Y19688D01*
X12106Y19625D01*
X12044Y19594D01*
X11825D01*
Y19969D01*
X12044D01*
X12106Y19938D01*
X12138Y19875D01*
X12106Y19813D01*
X12044Y19781D01*
X11825D01*
X12044Y22131D02*
X12106Y22100D01*
X12138Y22038D01*
X12106Y21975D01*
X12044Y21944D01*
X11825D01*
Y22319D01*
X12044D01*
X12106Y22288D01*
X12138Y22225D01*
X12106Y22163D01*
X12044Y22131D01*
X11825D01*
X12025Y13494D02*
Y13869D01*
X12338D01*
X12275Y13681D02*
X12025D01*
Y13494D02*
X12338D01*
X12025Y14494D02*
Y14869D01*
X12338D01*
X12275Y14681D02*
X12025D01*
Y14494D02*
X12338D01*
X12025Y15494D02*
Y15869D01*
X12338D01*
X12275Y15681D02*
X12025D01*
Y15494D02*
X12338D01*
X12025Y16494D02*
Y16869D01*
X12338D01*
X12275Y16681D02*
X12025D01*
Y16494D02*
X12338D01*
X12275Y10244D02*
Y10619D01*
X12588D01*
X12525Y10431D02*
X12275D01*
Y11244D02*
Y11619D01*
X12588D01*
X12525Y11431D02*
X12275D01*
Y12244D02*
Y12619D01*
X12588D01*
X12525Y12431D02*
X12275D01*
X13119Y7150D02*
X13213D01*
Y7119D01*
X13181Y7056D01*
X13150Y7025D01*
X13088Y6994D01*
X13025D01*
X12963Y7025D01*
X12931Y7056D01*
X12900Y7119D01*
Y7244D01*
X12931Y7306D01*
X12963Y7338D01*
X13025Y7369D01*
X13088D01*
X13150Y7338D01*
X13181Y7306D01*
X13213Y7244D01*
X13119Y8275D02*
X13213D01*
Y8244D01*
X13181Y8181D01*
X13150Y8150D01*
X13088Y8119D01*
X13025D01*
X12963Y8150D01*
X12931Y8181D01*
X12900Y8244D01*
Y8369D01*
X12931Y8431D01*
X12963Y8463D01*
X13025Y8494D01*
X13088D01*
X13150Y8463D01*
X13181Y8431D01*
X13213Y8369D01*
X12925Y17594D02*
Y17969D01*
X13238D01*
X13175Y17781D02*
X12925D01*
Y17594D02*
X13238D01*
X12925Y18594D02*
Y18969D01*
X13238D01*
X13175Y18781D02*
X12925D01*
Y18594D02*
X13238D01*
X12925Y19594D02*
Y19969D01*
X13238D01*
X13175Y19781D02*
X12925D01*
Y19594D02*
X13238D01*
X12925Y20594D02*
Y20969D01*
X13238D01*
X13175Y20781D02*
X12925D01*
Y20594D02*
X13238D01*
X14244Y23275D02*
X14338D01*
Y23244D01*
X14306Y23181D01*
X14275Y23150D01*
X14213Y23119D01*
X14150D01*
X14088Y23150D01*
X14056Y23181D01*
X14025Y23244D01*
Y23369D01*
X14056Y23431D01*
X14088Y23463D01*
X14150Y23494D01*
X14213D01*
X14275Y23463D01*
X14306Y23431D01*
X14338Y23369D01*
X14244Y24650D02*
X14338D01*
Y24619D01*
X14306Y24556D01*
X14275Y24525D01*
X14213Y24494D01*
X14150D01*
X14088Y24525D01*
X14056Y24556D01*
X14025Y24619D01*
Y24744D01*
X14056Y24806D01*
X14088Y24838D01*
X14150Y24869D01*
X14213D01*
X14275Y24838D01*
X14306Y24806D01*
X14338Y24744D01*
X14619Y10775D02*
X14713D01*
Y10744D01*
X14681Y10681D01*
X14650Y10650D01*
X14588Y10619D01*
X14525D01*
X14463Y10650D01*
X14431Y10681D01*
X14400Y10744D01*
Y10869D01*
X14431Y10931D01*
X14463Y10963D01*
X14525Y10994D01*
X14588D01*
X14650Y10963D01*
X14681Y10931D01*
X14713Y10869D01*
X14619Y11900D02*
X14713D01*
Y11869D01*
X14681Y11806D01*
X14650Y11775D01*
X14588Y11744D01*
X14525D01*
X14463Y11775D01*
X14431Y11806D01*
X14400Y11869D01*
Y11994D01*
X14431Y12056D01*
X14463Y12088D01*
X14525Y12119D01*
X14588D01*
X14650Y12088D01*
X14681Y12056D01*
X14713Y11994D01*
X14844Y6658D02*
Y7033D01*
X15031D01*
X15094Y7002D01*
X15125Y6971D01*
X15156Y6908D01*
Y6783D01*
X15125Y6721D01*
X15094Y6689D01*
X15031Y6658D01*
X14844D01*
X14900Y14494D02*
Y14869D01*
X15088D01*
X15150Y14838D01*
X15181Y14806D01*
X15213Y14744D01*
Y14619D01*
X15181Y14556D01*
X15150Y14525D01*
X15088Y14494D01*
X14900D01*
Y15494D02*
Y15869D01*
X15088D01*
X15150Y15838D01*
X15181Y15806D01*
X15213Y15744D01*
Y15619D01*
X15181Y15556D01*
X15150Y15525D01*
X15088Y15494D01*
X14900D01*
X15631Y6658D02*
Y7033D01*
X15819D01*
X15881Y7002D01*
X15913Y6971D01*
X15944Y6908D01*
Y6783D01*
X15913Y6721D01*
X15881Y6689D01*
X15819Y6658D01*
X15631D01*
X15900Y14494D02*
Y14869D01*
X16088D01*
X16150Y14838D01*
X16181Y14806D01*
X16213Y14744D01*
Y14619D01*
X16181Y14556D01*
X16150Y14525D01*
X16088Y14494D01*
X15900D01*
Y15494D02*
Y15869D01*
X16088D01*
X16150Y15838D01*
X16181Y15806D01*
X16213Y15744D01*
Y15619D01*
X16181Y15556D01*
X16150Y15525D01*
X16088Y15494D01*
X15900D01*
X15925Y17594D02*
Y17969D01*
X16238D01*
X16175Y17781D02*
X15925D01*
Y17594D02*
X16238D01*
X15925Y18594D02*
Y18969D01*
X16238D01*
X16175Y18781D02*
X15925D01*
Y18594D02*
X16238D01*
X15925Y19594D02*
Y19969D01*
X16238D01*
X16175Y19781D02*
X15925D01*
Y19594D02*
X16238D01*
X15925Y20594D02*
Y20969D01*
X16238D01*
X16175Y20781D02*
X15925D01*
Y20594D02*
X16238D01*
X16419Y6658D02*
Y7033D01*
X16606D01*
X16669Y7002D01*
X16700Y6971D01*
X16731Y6908D01*
Y6783D01*
X16700Y6721D01*
X16669Y6689D01*
X16606Y6658D01*
X16419D01*
X16900Y14494D02*
Y14869D01*
X17088D01*
X17150Y14838D01*
X17181Y14806D01*
X17213Y14744D01*
Y14619D01*
X17181Y14556D01*
X17150Y14525D01*
X17088Y14494D01*
X16900D01*
Y15494D02*
Y15869D01*
X17088D01*
X17150Y15838D01*
X17181Y15806D01*
X17213Y15744D01*
Y15619D01*
X17181Y15556D01*
X17150Y15525D01*
X17088Y15494D01*
X16900D01*
X17194Y18731D02*
X17256Y18700D01*
X17288Y18638D01*
X17256Y18575D01*
X17194Y18544D01*
X16975D01*
Y18919D01*
X17194D01*
X17256Y18888D01*
X17288Y18825D01*
X17256Y18763D01*
X17194Y18731D01*
X16975D01*
X17194Y25031D02*
X17256Y25000D01*
X17288Y24938D01*
X17256Y24875D01*
X17194Y24844D01*
X16975D01*
Y25219D01*
X17194D01*
X17256Y25188D01*
X17288Y25125D01*
X17256Y25063D01*
X17194Y25031D01*
X16975D01*
X17206Y6658D02*
Y7033D01*
X17394D01*
X17456Y7002D01*
X17487Y6971D01*
X17519Y6908D01*
Y6783D01*
X17487Y6721D01*
X17456Y6689D01*
X17394Y6658D01*
X17206D01*
X17894Y17631D02*
X17956Y17600D01*
X17988Y17538D01*
X17956Y17475D01*
X17894Y17444D01*
X17675D01*
Y17819D01*
X17894D01*
X17956Y17788D01*
X17988Y17725D01*
X17956Y17663D01*
X17894Y17631D01*
X17675D01*
X17894Y24431D02*
X17956Y24400D01*
X17988Y24338D01*
X17956Y24275D01*
X17894Y24244D01*
X17675D01*
Y24619D01*
X17894D01*
X17956Y24588D01*
X17988Y24525D01*
X17956Y24463D01*
X17894Y24431D01*
X17675D01*
X17900Y14494D02*
Y14869D01*
X18088D01*
X18150Y14838D01*
X18181Y14806D01*
X18213Y14744D01*
Y14619D01*
X18181Y14556D01*
X18150Y14525D01*
X18088Y14494D01*
X17900D01*
Y15494D02*
Y15869D01*
X18088D01*
X18150Y15838D01*
X18181Y15806D01*
X18213Y15744D01*
Y15619D01*
X18181Y15556D01*
X18150Y15525D01*
X18088Y15494D01*
X17900D01*
X18519Y22744D02*
X18644D01*
X18581D02*
Y23119D01*
X18519D02*
X18644D01*
X18900Y14494D02*
Y14869D01*
X19088D01*
X19150Y14838D01*
X19181Y14806D01*
X19213Y14744D01*
Y14619D01*
X19181Y14556D01*
X19150Y14525D01*
X19088Y14494D01*
X18900D01*
Y15494D02*
Y15869D01*
X19088D01*
X19150Y15838D01*
X19181Y15806D01*
X19213Y15744D01*
Y15619D01*
X19181Y15556D01*
X19150Y15525D01*
X19088Y15494D01*
X18900D01*
Y17619D02*
X19056Y17994D01*
X19213Y17619D01*
X18963Y17775D02*
X19150D01*
X18900Y19619D02*
X19056Y19994D01*
X19213Y19619D01*
X18963Y19775D02*
X19150D01*
X19619Y10775D02*
X19713D01*
Y10744D01*
X19681Y10681D01*
X19650Y10650D01*
X19588Y10619D01*
X19525D01*
X19463Y10650D01*
X19431Y10681D01*
X19400Y10744D01*
Y10869D01*
X19431Y10931D01*
X19463Y10963D01*
X19525Y10994D01*
X19588D01*
X19650Y10963D01*
X19681Y10931D01*
X19713Y10869D01*
X19619Y11900D02*
X19713D01*
Y11869D01*
X19681Y11806D01*
X19650Y11775D01*
X19588Y11744D01*
X19525D01*
X19463Y11775D01*
X19431Y11806D01*
X19400Y11869D01*
Y11994D01*
X19431Y12056D01*
X19463Y12088D01*
X19525Y12119D01*
X19588D01*
X19650Y12088D01*
X19681Y12056D01*
X19713Y11994D01*
X19519Y22744D02*
X19644D01*
X19581D02*
Y23119D01*
X19519D02*
X19644D01*
X20519Y22744D02*
X20644D01*
X20581D02*
Y23119D01*
X20519D02*
X20644D01*
X21244Y8650D02*
X21338D01*
Y8619D01*
X21306Y8556D01*
X21275Y8525D01*
X21213Y8494D01*
X21150D01*
X21088Y8525D01*
X21056Y8556D01*
X21025Y8619D01*
Y8744D01*
X21056Y8806D01*
X21088Y8838D01*
X21150Y8869D01*
X21213D01*
X21275Y8838D01*
X21306Y8806D01*
X21338Y8744D01*
X21294Y7150D02*
X21388D01*
Y7119D01*
X21356Y7056D01*
X21325Y7025D01*
X21263Y6994D01*
X21200D01*
X21138Y7025D01*
X21106Y7056D01*
X21075Y7119D01*
Y7244D01*
X21106Y7306D01*
X21138Y7338D01*
X21200Y7369D01*
X21263D01*
X21325Y7338D01*
X21356Y7306D01*
X21388Y7244D01*
X21400Y17619D02*
X21556Y17994D01*
X21713Y17619D01*
X21463Y17775D02*
X21650D01*
X21400Y19619D02*
X21556Y19994D01*
X21713Y19619D01*
X21463Y19775D02*
X21650D01*
X21519Y22744D02*
X21644D01*
X21581D02*
Y23119D01*
X21519D02*
X21644D01*
X23025Y13869D02*
Y14244D01*
Y14056D02*
X23338D01*
Y13869D02*
Y14244D01*
X23244Y16350D02*
X23338D01*
Y16319D01*
X23306Y16256D01*
X23275Y16225D01*
X23213Y16194D01*
X23150D01*
X23088Y16225D01*
X23056Y16256D01*
X23025Y16319D01*
Y16444D01*
X23056Y16506D01*
X23088Y16538D01*
X23150Y16569D01*
X23213D01*
X23275Y16538D01*
X23306Y16506D01*
X23338Y16444D01*
X23244Y21350D02*
X23338D01*
Y21319D01*
X23306Y21256D01*
X23275Y21225D01*
X23213Y21194D01*
X23150D01*
X23088Y21225D01*
X23056Y21256D01*
X23025Y21319D01*
Y21444D01*
X23056Y21506D01*
X23088Y21538D01*
X23150Y21569D01*
X23213D01*
X23275Y21538D01*
X23306Y21506D01*
X23338Y21444D01*
X24025Y9869D02*
Y10244D01*
Y10056D02*
X24338D01*
Y9869D02*
Y10244D01*
X25025Y13869D02*
Y14244D01*
Y14056D02*
X25338D01*
Y13869D02*
Y14244D01*
X25744Y16775D02*
X25838D01*
Y16744D01*
X25806Y16681D01*
X25775Y16650D01*
X25713Y16619D01*
X25650D01*
X25588Y16650D01*
X25556Y16681D01*
X25525Y16744D01*
Y16869D01*
X25556Y16931D01*
X25588Y16963D01*
X25650Y16994D01*
X25713D01*
X25775Y16963D01*
X25806Y16931D01*
X25838Y16869D01*
X25744Y21775D02*
X25838D01*
Y21744D01*
X25806Y21681D01*
X25775Y21650D01*
X25713Y21619D01*
X25650D01*
X25588Y21650D01*
X25556Y21681D01*
X25525Y21744D01*
Y21869D01*
X25556Y21931D01*
X25588Y21963D01*
X25650Y21994D01*
X25713D01*
X25775Y21963D01*
X25806Y21931D01*
X25838Y21869D01*
X26244Y8650D02*
X26338D01*
Y8619D01*
X26306Y8556D01*
X26275Y8525D01*
X26213Y8494D01*
X26150D01*
X26088Y8525D01*
X26056Y8556D01*
X26025Y8619D01*
Y8744D01*
X26056Y8806D01*
X26088Y8838D01*
X26150Y8869D01*
X26213D01*
X26275Y8838D01*
X26306Y8806D01*
X26338Y8744D01*
X26294Y7150D02*
X26388D01*
Y7119D01*
X26356Y7056D01*
X26325Y7025D01*
X26263Y6994D01*
X26200D01*
X26138Y7025D01*
X26106Y7056D01*
X26075Y7119D01*
Y7244D01*
X26106Y7306D01*
X26138Y7338D01*
X26200Y7369D01*
X26263D01*
X26325Y7338D01*
X26356Y7306D01*
X26388Y7244D01*
X26525Y21644D02*
Y22019D01*
X26838D01*
X26775Y21831D02*
X26525D01*
X27025Y12444D02*
Y12819D01*
X27338D01*
X27275Y12631D02*
X27025D01*
Y12444D02*
X27338D01*
X27025Y13444D02*
Y13819D01*
X27338D01*
X27275Y13631D02*
X27025D01*
Y13444D02*
X27338D01*
X27025Y14444D02*
Y14819D01*
X27338D01*
X27275Y14631D02*
X27025D01*
Y14444D02*
X27338D01*
X27025Y15444D02*
Y15819D01*
X27338D01*
X27275Y15631D02*
X27025D01*
Y15444D02*
X27338D01*
X27025Y16444D02*
Y16819D01*
X27338D01*
X27275Y16631D02*
X27025D01*
Y16444D02*
X27338D01*
X27025Y17444D02*
Y17819D01*
X27338D01*
X27275Y17631D02*
X27025D01*
Y17444D02*
X27338D01*
X27025Y18444D02*
Y18819D01*
X27338D01*
X27275Y18631D02*
X27025D01*
Y18444D02*
X27338D01*
X27275Y6994D02*
Y7369D01*
X27588D01*
X27525Y7181D02*
X27275D01*
Y8994D02*
Y9369D01*
X27588D01*
X27525Y9181D02*
X27275D01*
X28244Y11400D02*
X28338D01*
Y11369D01*
X28306Y11306D01*
X28275Y11275D01*
X28213Y11244D01*
X28150D01*
X28088Y11275D01*
X28056Y11306D01*
X28025Y11369D01*
Y11494D01*
X28056Y11556D01*
X28088Y11588D01*
X28150Y11619D01*
X28213D01*
X28275Y11588D01*
X28306Y11556D01*
X28338Y11494D01*
X28525Y21644D02*
Y22019D01*
X28838D01*
X28775Y21831D02*
X28525D01*
X29525Y8244D02*
Y8619D01*
X29838D01*
X29775Y8431D02*
X29525D01*
Y9369D02*
Y9744D01*
X29838D01*
X29775Y9556D02*
X29525D01*
X30119Y19650D02*
X30213D01*
Y19619D01*
X30181Y19556D01*
X30150Y19525D01*
X30088Y19494D01*
X30025D01*
X29963Y19525D01*
X29931Y19556D01*
X29900Y19619D01*
Y19744D01*
X29931Y19806D01*
X29963Y19838D01*
X30025Y19869D01*
X30088D01*
X30150Y19838D01*
X30181Y19806D01*
X30213Y19744D01*
X30119Y20900D02*
X30213D01*
Y20869D01*
X30181Y20806D01*
X30150Y20775D01*
X30088Y20744D01*
X30025D01*
X29963Y20775D01*
X29931Y20806D01*
X29900Y20869D01*
Y20994D01*
X29931Y21056D01*
X29963Y21088D01*
X30025Y21119D01*
X30088D01*
X30150Y21088D01*
X30181Y21056D01*
X30213Y20994D01*
X30025Y12444D02*
Y12819D01*
X30338D01*
X30275Y12631D02*
X30025D01*
Y12444D02*
X30338D01*
X30025Y13444D02*
Y13819D01*
X30338D01*
X30275Y13631D02*
X30025D01*
Y13444D02*
X30338D01*
X30025Y14444D02*
Y14819D01*
X30338D01*
X30275Y14631D02*
X30025D01*
Y14444D02*
X30338D01*
X30025Y15444D02*
Y15819D01*
X30338D01*
X30275Y15631D02*
X30025D01*
Y15444D02*
X30338D01*
X30025Y16444D02*
Y16819D01*
X30338D01*
X30275Y16631D02*
X30025D01*
Y16444D02*
X30338D01*
X30025Y17444D02*
Y17819D01*
X30338D01*
X30275Y17631D02*
X30025D01*
Y17444D02*
X30338D01*
X30025Y18444D02*
Y18819D01*
X30338D01*
X30275Y18631D02*
X30025D01*
Y18444D02*
X30338D01*
X31475Y17844D02*
Y18219D01*
X31788D01*
X31725Y18031D02*
X31475D01*
Y17844D02*
X31788D01*
X31525Y8244D02*
Y8619D01*
X31838D01*
X31775Y8431D02*
X31525D01*
Y9369D02*
Y9744D01*
X31838D01*
X31775Y9556D02*
X31525D01*
X32494Y12900D02*
X32588D01*
Y12869D01*
X32556Y12806D01*
X32525Y12775D01*
X32463Y12744D01*
X32400D01*
X32338Y12775D01*
X32306Y12806D01*
X32275Y12869D01*
Y12994D01*
X32306Y13056D01*
X32338Y13088D01*
X32400Y13119D01*
X32463D01*
X32525Y13088D01*
X32556Y13056D01*
X32588Y12994D01*
X32650Y23994D02*
Y24369D01*
X32963D01*
X32900Y24181D02*
X32650D01*
Y23994D02*
X32963D01*
X33244Y11400D02*
X33338D01*
Y11369D01*
X33306Y11306D01*
X33275Y11275D01*
X33213Y11244D01*
X33150D01*
X33088Y11275D01*
X33056Y11306D01*
X33025Y11369D01*
Y11494D01*
X33056Y11556D01*
X33088Y11588D01*
X33150Y11619D01*
X33213D01*
X33275Y11588D01*
X33306Y11556D01*
X33338Y11494D01*
X33650Y23994D02*
Y24369D01*
X33838D01*
X33900Y24338D01*
X33931Y24306D01*
X33963Y24244D01*
Y24119D01*
X33931Y24056D01*
X33900Y24025D01*
X33838Y23994D01*
X33650D01*
X34494Y6150D02*
X34588D01*
Y6119D01*
X34556Y6056D01*
X34525Y6025D01*
X34463Y5994D01*
X34400D01*
X34338Y6025D01*
X34306Y6056D01*
X34275Y6119D01*
Y6244D01*
X34306Y6306D01*
X34338Y6338D01*
X34400Y6369D01*
X34463D01*
X34525Y6338D01*
X34556Y6306D01*
X34588Y6244D01*
X34494Y11150D02*
X34588D01*
Y11119D01*
X34556Y11056D01*
X34525Y11025D01*
X34463Y10994D01*
X34400D01*
X34338Y11025D01*
X34306Y11056D01*
X34275Y11119D01*
Y11244D01*
X34306Y11306D01*
X34338Y11338D01*
X34400Y11369D01*
X34463D01*
X34525Y11338D01*
X34556Y11306D01*
X34588Y11244D01*
X34475Y17844D02*
Y18219D01*
X34788D01*
X34725Y18031D02*
X34475D01*
Y17844D02*
X34788D01*
X35119Y19650D02*
X35213D01*
Y19619D01*
X35181Y19556D01*
X35150Y19525D01*
X35088Y19494D01*
X35025D01*
X34963Y19525D01*
X34931Y19556D01*
X34900Y19619D01*
Y19744D01*
X34931Y19806D01*
X34963Y19838D01*
X35025Y19869D01*
X35088D01*
X35150Y19838D01*
X35181Y19806D01*
X35213Y19744D01*
X35119Y20900D02*
X35213D01*
Y20869D01*
X35181Y20806D01*
X35150Y20775D01*
X35088Y20744D01*
X35025D01*
X34963Y20775D01*
X34931Y20806D01*
X34900Y20869D01*
Y20994D01*
X34931Y21056D01*
X34963Y21088D01*
X35025Y21119D01*
X35088D01*
X35150Y21088D01*
X35181Y21056D01*
X35213Y20994D01*
X35025Y14869D02*
Y15244D01*
X35338D01*
X35275Y15056D02*
X35025D01*
Y16869D02*
Y17244D01*
X35338D01*
X35275Y17056D02*
X35025D01*
X35994Y6150D02*
X36088D01*
Y6119D01*
X36056Y6056D01*
X36025Y6025D01*
X35963Y5994D01*
X35900D01*
X35838Y6025D01*
X35806Y6056D01*
X35775Y6119D01*
Y6244D01*
X35806Y6306D01*
X35838Y6338D01*
X35900Y6369D01*
X35963D01*
X36025Y6338D01*
X36056Y6306D01*
X36088Y6244D01*
X35994Y11150D02*
X36088D01*
Y11119D01*
X36056Y11056D01*
X36025Y11025D01*
X35963Y10994D01*
X35900D01*
X35838Y11025D01*
X35806Y11056D01*
X35775Y11119D01*
Y11244D01*
X35806Y11306D01*
X35838Y11338D01*
X35900Y11369D01*
X35963D01*
X36025Y11338D01*
X36056Y11306D01*
X36088Y11244D01*
X36650Y18994D02*
Y19369D01*
X36963D01*
X36900Y19181D02*
X36650D01*
Y20994D02*
Y21369D01*
X36963D01*
X36900Y21181D02*
X36650D01*
X37275Y7744D02*
Y8119D01*
X37588D01*
X37525Y7931D02*
X37275D01*
Y9744D02*
Y10119D01*
X37588D01*
X37525Y9931D02*
X37275D01*
X37494Y12900D02*
X37588D01*
Y12869D01*
X37556Y12806D01*
X37525Y12775D01*
X37463Y12744D01*
X37400D01*
X37338Y12775D01*
X37306Y12806D01*
X37275Y12869D01*
Y12994D01*
X37306Y13056D01*
X37338Y13088D01*
X37400Y13119D01*
X37463D01*
X37525Y13088D01*
X37556Y13056D01*
X37588Y12994D01*
X37375Y15494D02*
Y15869D01*
X37688D01*
X37625Y15681D02*
X37375D01*
Y17494D02*
Y17869D01*
X37688D01*
X37625Y17681D02*
X37375D01*
X38644Y12750D02*
X38738D01*
Y12719D01*
X38706Y12656D01*
X38675Y12625D01*
X38613Y12594D01*
X38550D01*
X38488Y12625D01*
X38456Y12656D01*
X38425Y12719D01*
Y12844D01*
X38456Y12906D01*
X38488Y12938D01*
X38550Y12969D01*
X38613D01*
X38675Y12938D01*
X38706Y12906D01*
X38738Y12844D01*
X38644Y17750D02*
X38738D01*
Y17719D01*
X38706Y17656D01*
X38675Y17625D01*
X38613Y17594D01*
X38550D01*
X38488Y17625D01*
X38456Y17656D01*
X38425Y17719D01*
Y17844D01*
X38456Y17906D01*
X38488Y17938D01*
X38550Y17969D01*
X38613D01*
X38675Y17938D01*
X38706Y17906D01*
X38738Y17844D01*
X38994Y6250D02*
X39088D01*
Y6219D01*
X39056Y6156D01*
X39025Y6125D01*
X38963Y6094D01*
X38900D01*
X38838Y6125D01*
X38806Y6156D01*
X38775Y6219D01*
Y6344D01*
X38806Y6406D01*
X38838Y6438D01*
X38900Y6469D01*
X38963D01*
X39025Y6438D01*
X39056Y6406D01*
X39088Y6344D01*
X38994Y11250D02*
X39088D01*
Y11219D01*
X39056Y11156D01*
X39025Y11125D01*
X38963Y11094D01*
X38900D01*
X38838Y11125D01*
X38806Y11156D01*
X38775Y11219D01*
Y11344D01*
X38806Y11406D01*
X38838Y11438D01*
X38900Y11469D01*
X38963D01*
X39025Y11438D01*
X39056Y11406D01*
X39088Y11344D01*
X39775Y12644D02*
X39931Y13019D01*
X40088Y12644D01*
X39838Y12800D02*
X40025D01*
X40744Y5181D02*
X40806Y5150D01*
X40838Y5088D01*
X40806Y5025D01*
X40744Y4994D01*
X40525D01*
Y5369D01*
X40744D01*
X40806Y5338D01*
X40838Y5275D01*
X40806Y5213D01*
X40744Y5181D01*
X40525D01*
X40744Y7681D02*
X40806Y7650D01*
X40838Y7588D01*
X40806Y7525D01*
X40744Y7494D01*
X40525D01*
Y7869D01*
X40744D01*
X40806Y7838D01*
X40838Y7775D01*
X40806Y7713D01*
X40744Y7681D01*
X40525D01*
X42338Y2556D02*
X42306Y2525D01*
X42244Y2494D01*
X42150D01*
X42088Y2525D01*
X42056Y2556D01*
X42025Y2619D01*
Y2744D01*
X42056Y2806D01*
X42088Y2838D01*
X42150Y2869D01*
X42244D01*
X42306Y2838D01*
X42338Y2806D01*
X42588Y24431D02*
X42556Y24400D01*
X42494Y24369D01*
X42400D01*
X42338Y24400D01*
X42306Y24431D01*
X42275Y24494D01*
Y24619D01*
X42306Y24681D01*
X42338Y24713D01*
X42400Y24744D01*
X42494D01*
X42556Y24713D01*
X42588Y24681D01*
X42650Y12594D02*
X42806Y12969D01*
X42963Y12594D01*
X42713Y12750D02*
X42900D01*
D02*
D75*
X1900Y2025D03*
Y23775D03*
X2131Y9775D03*
X4525Y8650D03*
Y9775D03*
Y11525D03*
Y12525D03*
Y13525D03*
Y14525D03*
X5175Y18350D03*
Y20350D03*
X6900Y6400D03*
Y7525D03*
X8025Y9750D03*
Y10750D03*
Y11750D03*
Y12900D03*
Y13900D03*
Y14900D03*
Y15900D03*
Y22525D03*
Y23900D03*
X8775Y8650D03*
X9175Y19350D03*
X9900Y1525D03*
Y5150D03*
X10825Y19000D03*
Y21350D03*
X11025Y12900D03*
Y13900D03*
Y14900D03*
Y15900D03*
X11275Y9650D03*
Y10650D03*
Y11650D03*
X11900Y6400D03*
Y7525D03*
X11925Y17000D03*
Y18000D03*
Y19000D03*
Y20000D03*
X13025Y22525D03*
Y23900D03*
X13400Y10025D03*
Y11150D03*
X13844Y6064D03*
X13900Y13900D03*
Y14900D03*
X14631Y6064D03*
X14900Y13900D03*
Y14900D03*
X14925Y17000D03*
Y18000D03*
Y19000D03*
Y20000D03*
X15419Y6064D03*
X15900Y13900D03*
Y14900D03*
X15975Y17950D03*
Y24250D03*
X16206Y6064D03*
X16675Y16850D03*
Y23650D03*
X16900Y13900D03*
Y14900D03*
X17425Y22150D03*
X17900Y13900D03*
Y14900D03*
Y17025D03*
Y19025D03*
X18400Y10025D03*
Y11150D03*
X18425Y22150D03*
X19425D03*
X20025Y7900D03*
X20075Y6400D03*
X20400Y17025D03*
Y19025D03*
X20425Y22150D03*
X22025Y13275D03*
Y15600D03*
Y20600D03*
X23025Y9275D03*
X24025Y13275D03*
X24525Y16025D03*
Y21025D03*
X25025Y7900D03*
X25075Y6400D03*
X25525Y21050D03*
X26025Y11850D03*
Y12850D03*
Y13850D03*
Y14850D03*
Y15850D03*
Y16850D03*
Y17850D03*
X26275Y6400D03*
Y8400D03*
X27025Y10650D03*
X27525Y21050D03*
X28525Y7650D03*
Y8775D03*
X28900Y18900D03*
Y20150D03*
X29025Y11850D03*
Y12850D03*
Y13850D03*
Y14850D03*
Y15850D03*
Y16850D03*
Y17850D03*
X30475Y17250D03*
X30525Y7650D03*
Y8775D03*
X31275Y12150D03*
X31650Y23400D03*
X32025Y10650D03*
X32650Y23400D03*
X33275Y5400D03*
Y10400D03*
X33475Y17250D03*
X33900Y18900D03*
Y20150D03*
X34025Y14275D03*
Y16275D03*
X34775Y5400D03*
Y10400D03*
X35650Y18400D03*
Y20400D03*
X36275Y7150D03*
Y9150D03*
Y12150D03*
X36375Y14900D03*
Y16900D03*
X37425Y12000D03*
Y17000D03*
X37775Y5500D03*
Y10500D03*
X38775Y12050D03*
X39525Y4400D03*
Y6900D03*
X41025Y1900D03*
X41275Y23775D03*
X41650Y12000D03*
X0Y0D02*
M02*
