G05
M48
;#@! TF.GenerationSoftware,DesignSpark,DesignSpark PCB,11.0.5875
;#@! TF.CreationDate,2023-05-26T08:22:36--1:00*
;#@! TF.FileFunction,Plated,1,2,PTH
;FILE_FORMAT=3:5
;TYPE=PLATED
INCH,TZ
FMAT,2
T1C000.02400
T2C000.02500
T3C000.03000
T4C000.03150
T5C000.03200
T6C000.03583
T7C000.04000
T8C000.05906
T9C000.13780
%
T001
X1.08250Y1.90000
X1.08250Y2.13500
X1.59750Y1.79500
X1.59750Y2.42500
X1.66750Y1.68500
X1.66750Y2.36500
X3.95250Y0.44000
X3.95250Y0.69000
T002
X0.80250Y0.97500
X0.80250Y1.07500
X0.80250Y1.17500
X1.12750Y0.96500
X1.12750Y1.06500
X1.12750Y1.16500
X2.55250Y2.10500
X2.62750Y0.64000
X2.62750Y0.84000
X2.75250Y2.10500
X2.85250Y0.76500
X2.85250Y0.87750
X3.05250Y0.76500
X3.05250Y0.87750
X3.40250Y1.42750
X3.40250Y1.62750
X3.56500Y1.84000
X3.56500Y2.04000
X3.62750Y0.71500
X3.62750Y0.91500
X3.63750Y1.49000
X3.63750Y1.69000
T003
X0.21307Y0.97750
X0.45250Y0.86500
X0.45250Y0.97750
X0.87750Y0.86500
X0.99000Y0.15250
X0.99000Y0.51500
X1.79000Y1.70250
X1.79000Y1.90250
X2.04000Y1.70250
X2.04000Y1.90250
X3.87750Y1.20500
X4.16500Y1.20000
T004
X0.69000Y0.64000
X0.69000Y0.75250
X0.80250Y2.25250
X0.80250Y2.39000
X1.19000Y0.64000
X1.19000Y0.75250
X1.30250Y2.25250
X1.30250Y2.39000
X1.34000Y1.00250
X1.34000Y1.11500
X1.84000Y1.00250
X1.84000Y1.11500
X2.00250Y0.79000
X2.00750Y0.64000
X2.20250Y1.56000
X2.20250Y2.06000
X2.45250Y1.60250
X2.45250Y2.10250
X2.50250Y0.79000
X2.50750Y0.64000
X2.70250Y1.06500
X2.89000Y1.89000
X2.89000Y2.01500
X3.12750Y1.21500
X3.20250Y1.06500
X3.32750Y0.54000
X3.32750Y1.04000
X3.39000Y1.89000
X3.39000Y2.01500
X3.47750Y0.54000
X3.47750Y1.04000
X3.62750Y1.21500
X3.74250Y1.20000
X3.74250Y1.70000
X3.77750Y0.55000
X3.77750Y1.05000
T005
X0.80250Y1.29000
X0.80250Y1.39000
X0.80250Y1.49000
X0.80250Y1.59000
X1.10250Y1.29000
X1.10250Y1.39000
X1.10250Y1.49000
X1.10250Y1.59000
X1.19250Y1.70000
X1.19250Y1.80000
X1.19250Y1.90000
X1.19250Y2.00000
X1.49250Y1.70000
X1.49250Y1.80000
X1.49250Y1.90000
X1.49250Y2.00000
X2.60250Y1.18500
X2.60250Y1.28500
X2.60250Y1.38500
X2.60250Y1.48500
X2.60250Y1.58500
X2.60250Y1.68500
X2.60250Y1.78500
X2.90250Y1.18500
X2.90250Y1.28500
X2.90250Y1.38500
X2.90250Y1.48500
X2.90250Y1.58500
X2.90250Y1.68500
X2.90250Y1.78500
X3.04750Y1.72500
X3.16500Y2.34000
X3.34750Y1.72500
T006
X0.45250Y1.15250
X0.45250Y1.25250
X0.45250Y1.35250
X0.45250Y1.45250
X1.74250Y2.21500
X1.84250Y2.21500
X1.94250Y2.21500
X2.04250Y2.21500
T007
X1.38439Y0.60644
X1.39000Y1.39000
X1.39000Y1.49000
X1.46313Y0.60644
X1.49000Y1.39000
X1.49000Y1.49000
X1.54187Y0.60644
X1.59000Y1.39000
X1.59000Y1.49000
X1.62061Y0.60644
X1.69000Y1.39000
X1.69000Y1.49000
X1.79000Y1.39000
X1.79000Y1.49000
X3.26500Y2.34000
T008
X0.51750Y1.83500
X0.51750Y2.03500
X0.91750Y1.93500
X2.20250Y1.32750
X2.30250Y0.92750
X2.40250Y1.32750
T009
X0.19000Y0.20250
X0.19000Y2.37750
X4.10250Y0.19000
X4.12750Y2.37750
M30
