  0
SECTION
  2
HEADER
  9
$ACADVER
  1
AC1006
  9
$EXTMIN
 10
0.0
 20
0.0
  9
$EXTMAX
 10
114.299995
 20
69.849991
  9
$LTSCALE
 40
0.000394
  9
$PDMODE
 70
35
  9
$PDSIZE
 40
0.000315
  0
ENDSEC
  0
SECTION
  2
TABLES
  0
TABLE
  2
LTYPE
 70
  9
  0
LTYPE
  2
CONTINUOUS
 70
 64
  3
Solid line
 72
 65
 73
  0
 40
0.000000
  0
LTYPE
  2
DASHED
 70
 64
  3
__ __ __ __ __ __ __ __ __ __ __ __ __ __ __
 72
 65
 73
  2
 40
0.000003
 49
0.000002
 49
-0.000001
  0
LTYPE
  2
HIDDEN
 70
 64
  3
 _ _ _ _ _ _ _ _ _ _ _ _ _ _ _ _ _ _ _ _ _ _
 72
 65
 73
  2
 40
0.000001
 49
0.000001
 49
-0.000000
  0
LTYPE
  2
CENTER
 70
 64
  3
____ _ ____ _ ____ _ ____ _ ____ _ ____ _ ____
 72
 65
 73
  4
 40
0.000008
 49
0.000005
 49
-0.000001
 49
0.000001
 49
-0.000001
  0
LTYPE
  2
PHANTOM
 70
 64
  3
_____ _ _ _____ _ _ _____ _ _ _____ _ _ ____
 72
 65
 73
  6
 40
0.000010
 49
0.000005
 49
-0.000001
 49
0.000001
 49
-0.000001
 49
0.000001
 49
-0.000001
  0
LTYPE
  2
DOT
 70
 64
  3
...............................................
 72
 65
 73
  2
 40
0.000001
 49
0.000000
 49
-0.000001
  0
LTYPE
  2
DASHDOT
 70
 64
  3
__ . __ . __ . __ . __ . __ . __ . __ . __ . __
 72
 65
 73
  4
 40
0.000004
 49
0.000002
 49
-0.000001
 49
0.000000
 49
-0.000001
  0
LTYPE
  2
BORDER
 70
 64
  3
__ __ . __ __ . __ __ . __ __ . __ __ . __ __
 72
 65
 73
  6
 40
0.000007
 49
0.000002
 49
-0.000001
 49
0.000002
 49
-0.000001
 49
0.000000
 49
-0.000001
  0
LTYPE
  2
DIVIDE
 70
 64
  3
__ . . __ . . __ . . __ . . __ . . __ . . __
 72
 65
 73
  6
 40
0.000005
 49
0.000002
 49
-0.000001
 49
0.000000
 49
-0.000001
 49
0.000000
 49
-0.000001
  0
LTYPE
  2
DOTDOT
 70
 64
  3
 . .  . .  . .  . .  . .  . .
 72
 65
 73
  5
 40
0.000002
 49
-0.000001
 49
0.000000
 49
-0.000001
 49
0.000000
 49
-0.000001
  0
ENDTAB
  0
TABLE
  2
STYLE
 70
  0
  0
ENDTAB
  0
TABLE
  2
LAYER
 70
  4
  0
LAYER
  2
FOREGROUND
 70
 64
 62
  7
  6
CONTINUOUS
  0
LAYER
  2
BACKGROUND
 70
 65
 62
 -7
  6
CONTINUOUS
  0
LAYER
  2
PLAN_1
 70
 64
 62
  7
  6
CONTINUOUS
  0
ENDTAB
  0
ENDSEC
  0
SECTION
  2
ENTITIES
  0
CIRCLE
  8
PLAN_1
 62
7
 10
7.3025
 20
7.3025
 30
-2.0
 40
1.626
  0
CIRCLE
  8
PLAN_1
 62
7
 10
20.002499
 20
18.415001
 30
1.6
 40
0.356
  0
CIRCLE
  8
PLAN_1
 62
7
 10
20.002499
 20
21.272499
 30
1.6
 40
0.356
  0
CIRCLE
  8
PLAN_1
 62
7
 10
24.764997
 20
24.129999
 30
1.6
 40
0.356
  0
CIRCLE
  8
PLAN_1
 62
7
 10
22.860001
 20
26.924
 30
1.6
 40
0.229
  0
CIRCLE
  8
PLAN_1
 62
7
 10
22.860001
 20
29.464003
 30
1.6
 40
0.229
  0
CIRCLE
  8
PLAN_1
 62
7
 10
22.860001
 20
32.003998
 30
1.6
 40
0.229
  0
CIRCLE
  8
PLAN_1
 62
7
 10
22.860001
 20
34.924999
 30
1.6
 40
0.356
  0
CIRCLE
  8
PLAN_1
 62
7
 10
22.860001
 20
37.465
 30
1.6
 40
0.356
  0
CIRCLE
  8
PLAN_1
 62
7
 10
22.860001
 20
40.004997
 30
1.6
 40
0.356
  0
CIRCLE
  8
PLAN_1
 62
7
 10
22.860001
 20
42.545002
 30
1.6
 40
0.356
  0
CIRCLE
  8
PLAN_1
 62
7
 10
30.48
 20
42.545002
 30
1.6
 40
0.356
  0
CIRCLE
  8
PLAN_1
 62
7
 10
30.48
 20
40.004997
 30
1.6
 40
0.356
  0
CIRCLE
  8
PLAN_1
 62
7
 10
30.48
 20
37.465
 30
1.6
 40
0.356
  0
CIRCLE
  8
PLAN_1
 62
7
 10
30.48
 20
34.924999
 30
1.6
 40
0.356
  0
CIRCLE
  8
PLAN_1
 62
7
 10
31.115004
 20
31.749998
 30
1.6
 40
0.229
  0
CIRCLE
  8
PLAN_1
 62
7
 10
31.115004
 20
29.209999
 30
1.6
 40
0.229
  0
CIRCLE
  8
PLAN_1
 62
7
 10
31.115004
 20
26.669998
 30
1.6
 40
0.229
  0
CIRCLE
  8
PLAN_1
 62
7
 10
36.512497
 20
27.622498
 30
1.6
 40
0.356
  0
CIRCLE
  8
PLAN_1
 62
7
 10
36.512497
 20
30.480001
 30
1.6
 40
0.356
  0
CIRCLE
  8
PLAN_1
 62
7
 10
37.782501
 20
37.465
 30
1.6
 40
0.483
  0
CIRCLE
  8
PLAN_1
 62
7
 10
40.322495
 20
37.465
 30
1.6
 40
0.483
  0
CIRCLE
  8
PLAN_1
 62
7
 10
40.322495
 20
40.004997
 30
1.6
 40
0.483
  0
CIRCLE
  8
PLAN_1
 62
7
 10
37.782501
 20
40.004997
 30
1.6
 40
0.483
  0
CIRCLE
  8
PLAN_1
 62
7
 10
42.862503
 20
40.004997
 30
1.6
 40
0.483
  0
CIRCLE
  8
PLAN_1
 62
7
 10
42.862503
 20
37.465
 30
1.6
 40
0.483
  0
CIRCLE
  8
PLAN_1
 62
7
 10
45.402504
 20
37.465
 30
1.6
 40
0.483
  0
CIRCLE
  8
PLAN_1
 62
7
 10
47.942497
 20
37.465
 30
1.6
 40
0.483
  0
CIRCLE
  8
PLAN_1
 62
7
 10
47.942497
 20
40.004997
 30
1.6
 40
0.483
  0
CIRCLE
  8
PLAN_1
 62
7
 10
45.402504
 20
40.004997
 30
1.6
 40
0.483
  0
CIRCLE
  8
PLAN_1
 62
7
 10
44.831001
 20
44.957996
 30
1.6
 40
0.229
  0
CIRCLE
  8
PLAN_1
 62
7
 10
47.942497
 20
45.4025
 30
1.6
 40
0.356
  0
CIRCLE
  8
PLAN_1
 62
7
 10
47.942497
 20
50.482498
 30
1.6
 40
0.356
  0
CIRCLE
  8
PLAN_1
 62
7
 10
43.053001
 20
47.751999
 30
1.6
 40
0.229
  0
CIRCLE
  8
PLAN_1
 62
7
 10
40.386002
 20
47.879002
 30
1.6
 40
0.356
  0
CIRCLE
  8
PLAN_1
 62
7
 10
40.386002
 20
50.419003
 30
1.6
 40
0.356
  0
CIRCLE
  8
PLAN_1
 62
7
 10
40.386002
 20
52.959
 30
1.6
 40
0.356
  0
CIRCLE
  8
PLAN_1
 62
7
 10
32.765999
 20
52.959
 30
1.6
 40
0.356
  0
CIRCLE
  8
PLAN_1
 62
7
 10
32.765999
 20
50.419003
 30
1.6
 40
0.356
  0
CIRCLE
  8
PLAN_1
 62
7
 10
32.765999
 20
47.879002
 30
1.6
 40
0.356
  0
CIRCLE
  8
PLAN_1
 62
7
 10
32.765999
 20
45.338993
 30
1.6
 40
0.356
  0
CIRCLE
  8
PLAN_1
 62
7
 10
29.972
 20
50.419003
 30
1.6
 40
0.229
  0
CIRCLE
  8
PLAN_1
 62
7
 10
25.781
 20
51.307999
 30
1.6
 40
0.61
  0
CIRCLE
  8
PLAN_1
 62
7
 10
29.972
 20
56.387997
 30
1.6
 40
0.229
  0
CIRCLE
  8
PLAN_1
 62
7
 10
35.559998
 20
59.372498
 30
1.6
 40
0.356
  0
CIRCLE
  8
PLAN_1
 62
7
 10
35.559998
 20
62.864994
 30
1.6
 40
0.356
  0
CIRCLE
  8
PLAN_1
 62
7
 10
43.053001
 20
63.754002
 30
1.6
 40
0.229
  0
CIRCLE
  8
PLAN_1
 62
7
 10
44.831001
 20
62.229996
 30
1.6
 40
0.229
  0
CIRCLE
  8
PLAN_1
 62
7
 10
46.735992
 20
58.419994
 30
1.6
 40
0.356
  0
CIRCLE
  8
PLAN_1
 62
7
 10
49.276001
 20
58.419994
 30
1.6
 40
0.356
  0
CIRCLE
  8
PLAN_1
 62
7
 10
51.816002
 20
58.419994
 30
1.6
 40
0.356
  0
CIRCLE
  8
PLAN_1
 62
7
 10
54.356003
 20
58.419994
 30
1.6
 40
0.356
  0
CIRCLE
  8
PLAN_1
 62
7
 10
58.419998
 20
54.482998
 30
1.6
 40
0.356
  0
CIRCLE
  8
PLAN_1
 62
7
 10
54.292488
 20
50.482498
 30
1.6
 40
0.356
  0
CIRCLE
  8
PLAN_1
 62
7
 10
54.292488
 20
45.4025
 30
1.6
 40
0.356
  0
CIRCLE
  8
PLAN_1
 62
7
 10
58.419998
 20
41.783001
 30
1.6
 40
0.356
  0
CIRCLE
  8
PLAN_1
 62
7
 10
58.419998
 20
35.877499
 30
1.6
 40
0.61
  0
CIRCLE
  8
PLAN_1
 62
7
 10
63.5
 20
35.877499
 30
1.6
 40
0.61
  0
CIRCLE
  8
PLAN_1
 62
7
 10
68.580002
 20
34.798
 30
1.6
 40
0.356
  0
CIRCLE
  8
PLAN_1
 62
7
 10
68.580002
 20
32.257999
 30
1.6
 40
0.356
  0
CIRCLE
  8
PLAN_1
 62
7
 10
71.120003
 20
29.209999
 30
1.6
 40
0.356
  0
CIRCLE
  8
PLAN_1
 62
7
 10
76.200005
 20
32.257999
 30
1.6
 40
0.356
  0
CIRCLE
  8
PLAN_1
 62
7
 10
76.200005
 20
34.798
 30
1.6
 40
0.356
  0
CIRCLE
  8
PLAN_1
 62
7
 10
76.200005
 20
37.338001
 30
1.6
 40
0.356
  0
CIRCLE
  8
PLAN_1
 62
7
 10
76.200005
 20
39.877998
 30
1.6
 40
0.356
  0
CIRCLE
  8
PLAN_1
 62
7
 10
76.200005
 20
42.417999
 30
1.6
 40
0.356
  0
CIRCLE
  8
PLAN_1
 62
7
 10
76.200005
 20
44.957996
 30
1.6
 40
0.356
  0
CIRCLE
  8
PLAN_1
 62
7
 10
76.200005
 20
47.498005
 30
1.6
 40
0.356
  0
CIRCLE
  8
PLAN_1
 62
7
 10
75.882492
 20
50.165001
 30
1.6
 40
0.356
  0
CIRCLE
  8
PLAN_1
 62
7
 10
75.882492
 20
53.34
 30
1.6
 40
0.356
  0
CIRCLE
  8
PLAN_1
 62
7
 10
72.389999
 20
55.625996
 30
1.6
 40
0.229
  0
CIRCLE
  8
PLAN_1
 62
7
 10
67.309998
 20
55.625996
 30
1.6
 40
0.229
  0
CIRCLE
  8
PLAN_1
 62
7
 10
64.770004
 20
55.562496
 30
1.6
 40
0.356
  0
CIRCLE
  8
PLAN_1
 62
7
 10
68.580002
 20
47.498005
 30
1.6
 40
0.356
  0
CIRCLE
  8
PLAN_1
 62
7
 10
68.580002
 20
44.957996
 30
1.6
 40
0.356
  0
CIRCLE
  8
PLAN_1
 62
7
 10
68.580002
 20
42.417999
 30
1.6
 40
0.356
  0
CIRCLE
  8
PLAN_1
 62
7
 10
68.580002
 20
39.877998
 30
1.6
 40
0.356
  0
CIRCLE
  8
PLAN_1
 62
7
 10
68.580002
 20
37.338001
 30
1.6
 40
0.356
  0
CIRCLE
  8
PLAN_1
 62
7
 10
64.770004
 20
42.862492
 30
1.6
 40
0.356
  0
CIRCLE
  8
PLAN_1
 62
7
 10
79.882996
 20
45.973999
 30
1.6
 40
0.356
  0
CIRCLE
  8
PLAN_1
 62
7
 10
87.503006
 20
45.973999
 30
1.6
 40
0.356
  0
CIRCLE
  8
PLAN_1
 62
7
 10
88.899994
 20
43.497501
 30
1.6
 40
0.229
  0
CIRCLE
  8
PLAN_1
 62
7
 10
88.899994
 20
38.417503
 30
1.6
 40
0.229
  0
CIRCLE
  8
PLAN_1
 62
7
 10
94.869003
 20
40.004997
 30
1.6
 40
0.229
  0
CIRCLE
  8
PLAN_1
 62
7
 10
94.869003
 20
45.085003
 30
1.6
 40
0.229
  0
CIRCLE
  8
PLAN_1
 62
7
 10
97.536003
 20
45.338993
 30
1.6
 40
0.356
  0
CIRCLE
  8
PLAN_1
 62
7
 10
93.027504
 20
48.895
 30
1.6
 40
0.229
  0
CIRCLE
  8
PLAN_1
 62
7
 10
88.582504
 20
50.165001
 30
1.6
 40
0.356
  0
CIRCLE
  8
PLAN_1
 62
7
 10
88.582504
 20
53.34
 30
1.6
 40
0.356
  0
CIRCLE
  8
PLAN_1
 62
7
 10
93.027504
 20
53.974991
 30
1.6
 40
0.229
  0
CIRCLE
  8
PLAN_1
 62
7
 10
85.407501
 20
61.594997
 30
1.6
 40
0.483
  0
CIRCLE
  8
PLAN_1
 62
7
 10
82.867508
 20
61.594997
 30
1.6
 40
0.356
  0
CIRCLE
  8
PLAN_1
 62
7
 10
107.315002
 20
62.547497
 30
1.6
 40
1.626
  0
CIRCLE
  8
PLAN_1
 62
7
 10
108.267502
 20
32.639
 30
1.6
 40
0.356
  0
CIRCLE
  8
PLAN_1
 62
7
 10
100.965004
 20
32.766006
 30
1.6
 40
0.356
  0
CIRCLE
  8
PLAN_1
 62
7
 10
97.536003
 20
32.639
 30
1.6
 40
0.356
  0
CIRCLE
  8
PLAN_1
 62
7
 10
94.615005
 20
33.02
 30
1.6
 40
0.356
  0
CIRCLE
  8
PLAN_1
 62
7
 10
98.424995
 20
28.828999
 30
1.6
 40
0.356
  0
CIRCLE
  8
PLAN_1
 62
7
 10
94.615005
 20
25.400002
 30
1.6
 40
0.229
  0
CIRCLE
  8
PLAN_1
 62
7
 10
90.804993
 20
28.574997
 30
1.6
 40
0.356
  0
CIRCLE
  8
PLAN_1
 62
7
 10
86.995003
 20
28.574997
 30
1.6
 40
0.356
  0
CIRCLE
  8
PLAN_1
 62
7
 10
83.82
 20
29.209999
 30
1.6
 40
0.356
  0
CIRCLE
  8
PLAN_1
 62
7
 10
81.915001
 20
33.02
 30
1.6
 40
0.356
  0
CIRCLE
  8
PLAN_1
 62
7
 10
80.009995
 20
24.447498
 30
1.6
 40
0.229
  0
CIRCLE
  8
PLAN_1
 62
7
 10
80.009995
 20
21.590002
 30
1.6
 40
0.229
  0
CIRCLE
  8
PLAN_1
 62
7
 10
74.93
 20
21.590002
 30
1.6
 40
0.229
  0
CIRCLE
  8
PLAN_1
 62
7
 10
74.93
 20
24.447498
 30
1.6
 40
0.229
  0
CIRCLE
  8
PLAN_1
 62
7
 10
69.215004
 20
23.495003
 30
1.6
 40
0.229
  0
CIRCLE
  8
PLAN_1
 62
7
 10
66.040001
 20
22.225002
 30
1.6
 40
0.356
  0
CIRCLE
  8
PLAN_1
 62
7
 10
66.166992
 20
18.415001
 30
1.6
 40
0.356
  0
CIRCLE
  8
PLAN_1
 62
7
 10
69.215004
 20
18.415001
 30
1.6
 40
0.229
  0
CIRCLE
  8
PLAN_1
 62
7
 10
60.959999
 20
25.717501
 30
1.6
 40
0.61
  0
CIRCLE
  8
PLAN_1
 62
7
 10
53.339996
 20
22.225002
 30
1.6
 40
0.356
  0
CIRCLE
  8
PLAN_1
 62
7
 10
53.466995
 20
18.415001
 30
1.6
 40
0.356
  0
CIRCLE
  8
PLAN_1
 62
7
 10
43.639732
 20
17.561558
 30
1.6
 40
0.483
  0
CIRCLE
  8
PLAN_1
 62
7
 10
41.638214
 20
17.561558
 30
1.6
 40
0.483
  0
CIRCLE
  8
PLAN_1
 62
7
 10
39.639236
 20
17.561558
 30
1.6
 40
0.483
  0
CIRCLE
  8
PLAN_1
 62
7
 10
37.637718
 20
17.561558
 30
1.6
 40
0.483
  0
CIRCLE
  8
PLAN_1
 62
7
 10
32.702499
 20
18.415001
 30
1.6
 40
0.356
  0
CIRCLE
  8
PLAN_1
 62
7
 10
32.702499
 20
21.272499
 30
1.6
 40
0.356
  0
CIRCLE
  8
PLAN_1
 62
7
 10
27.622503
 20
15.24
 30
1.6
 40
0.356
  0
CIRCLE
  8
PLAN_1
 62
7
 10
27.622503
 20
6.0325
 30
1.6
 40
0.356
  0
CIRCLE
  8
PLAN_1
 62
7
 10
13.969999
 20
24.129999
 30
1.6
 40
0.356
  0
CIRCLE
  8
PLAN_1
 62
7
 10
13.969999
 20
26.987501
 30
1.6
 40
0.356
  0
CIRCLE
  8
PLAN_1
 62
7
 10
13.969999
 20
31.432501
 30
1.6
 40
0.356
  0
CIRCLE
  8
PLAN_1
 62
7
 10
13.969999
 20
33.9725
 30
1.6
 40
0.356
  0
CIRCLE
  8
PLAN_1
 62
7
 10
13.969999
 20
36.512501
 30
1.6
 40
0.356
  0
CIRCLE
  8
PLAN_1
 62
7
 10
13.969999
 20
39.052498
 30
1.6
 40
0.356
  0
CIRCLE
  8
PLAN_1
 62
7
 10
15.620998
 20
48.768002
 30
1.6
 40
0.61
  0
CIRCLE
  8
PLAN_1
 62
7
 10
15.620998
 20
53.848
 30
1.6
 40
0.61
  0
CIRCLE
  8
PLAN_1
 62
7
 10
22.860001
 20
59.372498
 30
1.6
 40
0.356
  0
CIRCLE
  8
PLAN_1
 62
7
 10
22.860001
 20
62.864994
 30
1.6
 40
0.356
  0
CIRCLE
  8
PLAN_1
 62
7
 10
7.3025
 20
62.547497
 30
1.6
 40
1.626
  0
CIRCLE
  8
PLAN_1
 62
7
 10
7.886699
 20
26.987501
 30
1.6
 40
0.356
  0
CIRCLE
  8
PLAN_1
 62
7
 10
40.386002
 20
45.338993
 30
1.6
 40
0.356
  0
CIRCLE
  8
PLAN_1
 62
7
 10
49.212502
 20
30.480001
 30
1.6
 40
0.356
  0
CIRCLE
  8
PLAN_1
 62
7
 10
49.212502
 20
27.622498
 30
1.6
 40
0.356
  0
CIRCLE
  8
PLAN_1
 62
7
 10
86.995003
 20
15.875001
 30
1.6
 40
0.356
  0
CIRCLE
  8
PLAN_1
 62
7
 10
90.804993
 20
15.875001
 30
1.6
 40
0.356
  0
CIRCLE
  8
PLAN_1
 62
7
 10
94.615005
 20
20.32
 30
1.6
 40
0.229
  0
CIRCLE
  8
PLAN_1
 62
7
 10
98.424995
 20
16.129
 30
1.6
 40
0.356
  0
CIRCLE
  8
PLAN_1
 62
7
 10
102.87001
 20
13.335001
 30
1.6
 40
0.229
  0
CIRCLE
  8
PLAN_1
 62
7
 10
102.87001
 20
19.684999
 30
1.6
 40
0.229
  0
CIRCLE
  8
PLAN_1
 62
7
 10
106.680008
 20
6.985001
 30
1.6
 40
1.626
  0
LINE
  8
PLAN_1
 62
5
 10
2.14
 20
2.14
 30
1.6
 11
112.159996
 21
2.14
 31
1.6
  0
LINE
  8
PLAN_1
 62
5
 10
112.159996
 20
2.14
 30
1.6
 11
112.159996
 21
67.709991
 31
1.6
  0
LINE
  8
PLAN_1
 62
5
 10
112.159996
 20
67.709991
 30
1.6
 11
2.14
 21
67.709991
 31
1.6
  0
LINE
  8
PLAN_1
 62
5
 10
2.14
 20
67.709991
 30
1.6
 11
2.14
 21
2.14
 31
1.6
  0
ENDSEC
  0
EOF

